<?xml version="1.0" encoding="iso-8859-1"?>
<svg version="1.1" xmlns="http://www.w3.org/2000/svg" xmlns:xlink="http://www.w3.org/1999/xlink" x="0px" y="0px"
	 viewBox="0 0 511.999 511.999" style="enable-background:new 0 0 511.999 511.999;" xml:space="preserve">
<g>
	<g>
		<path fill="white" d="M255.999,0C114.841,0,0,114.842,0,255.999s114.841,255.999,255.999,255.999s255.999-114.842,255.999-255.999
			S397.159,0,255.999,0z M49.151,385.223h43.242h98.666l-60.946,79.693C97.294,445.065,69.512,417.697,49.151,385.223z
			 M356.434,149.85c4.252,2.143,17.521,8.364,34.373,11.742c-4.502,1.597-9.105,2.733-13.032,2.733h-243.55
			c-3.914,0-8.514-1.139-13.018-2.736c16.844-3.379,30.108-9.598,34.357-11.74H356.434z M162.338,137.824l4.362-13.625h178.601
			l4.361,13.625H162.338z M373.101,176.351v16.926H138.899v-16.926H373.101z M378.978,205.303
			c5.315,2.706,24.778,11.978,49.05,15.917c-7.209,3.024-15.425,5.616-22.407,5.616H106.378c-6.981,0-15.197-2.593-22.407-5.616
			c24.271-3.938,43.736-13.211,49.052-15.917H378.978z M399.609,238.863v18.738H112.391v-18.738H399.609z M413.593,269.626v83.059
			H294.175v-29.875c0-21.05-17.125-38.174-38.174-38.174c-21.05,0-38.174,17.125-38.174,38.174v29.875H98.407v-83.059H413.593z
			 M413.593,364.712v8.485H294.175v-8.485H413.593z M282.149,322.811v50.386h-52.299v-50.386c0-14.419,11.73-26.149,26.15-26.149
			C270.421,296.662,282.149,308.392,282.149,322.811z M217.825,364.71v8.485H98.407v-8.485H217.825z M255.999,499.974
			c-41.698,0-80.981-10.524-115.348-29.042l65.545-85.706h98.706l65.799,86.049C336.487,489.577,297.438,499.974,255.999,499.974z
			 M381.259,465.286l-61.223-80.065h99.569h43.243C442.358,417.903,414.351,445.405,381.259,465.286z M425.617,373.196V263.613
			c0-3.32-2.691-6.013-6.013-6.013h-7.971v-19.169c18.919-2.557,40.024-15.722,41.006-16.341c2.267-1.427,3.317-4.183,2.574-6.756
			c-0.742-2.573-3.098-4.346-5.777-4.346c-29.651,0-57.167-12.543-64.311-16.066v-19.328c14.544-2.759,29.708-12.216,30.451-12.684
			c2.267-1.427,3.317-4.181,2.574-6.755c-0.742-2.573-3.098-4.346-5.777-4.346c-22.255,0-43.017-9.079-49.518-12.212l-7.154-22.351
			v-13.976c0-3.32-2.691-6.013-6.013-6.013s-6.013,2.693-6.013,6.013v8.903H168.324v-8.903c0-3.32-2.693-6.013-6.013-6.013
			c-3.32,0-6.013,2.693-6.013,6.013v13.977l-7.156,22.356c-6.488,3.138-27.179,12.207-49.516,12.207
			c-2.679,0-5.035,1.773-5.777,4.346c-0.743,2.573,0.307,5.329,2.574,6.755c0.744,0.469,15.908,9.925,30.451,12.683v19.33
			c-7.134,3.528-34.57,16.063-64.31,16.063c-2.679,0-5.035,1.773-5.777,4.346c-0.742,2.573,0.307,5.329,2.573,6.755
			c0.981,0.618,22.086,13.785,41.005,16.341v19.169h-7.971c-3.32,0-6.013,2.693-6.013,6.013v109.583H42.075
			c-19.144-34.801-30.05-74.747-30.05-117.195c0-134.528,109.446-243.974,243.974-243.974s243.974,109.446,243.974,243.974
			c0,42.448-10.906,82.393-30.049,117.196H425.617z"/>
	</g>
</g>
</svg>
